<svg width="287" height="65" viewBox="0 0 287 65" fill="none" xmlns="http://www.w3.org/2000/svg">
<path d="M0.694092 63.2368V0.143215H2.49677V63.2368H0.694092ZM31.6099 0.143215H57.3882V63.2368H53.6927L42.6964 45.3002C50.3578 41.2442 55.5855 33.2223 55.5855 24.0286C55.5855 10.8691 44.8596 0.143215 31.6099 0.143215ZM13.4029 37.098V11.0494H31.6099C38.8206 11.0494 44.6793 16.9081 44.6793 24.0286C44.6793 31.2393 38.8206 37.098 31.6099 37.098H13.4029ZM13.4029 63.2368V48.0042H31.7902L41.1641 63.2368H13.4029Z" fill="#3B82F6"/>
<path d="M66.8198 11.0494H109.543V0.143215H55.9136V63.2368H109.543V52.3306H66.8198V37.1882H95.933V26.1919H66.8198V11.0494Z" fill="#3B82F6"/>
<path d="M169.741 0.143215H158.835V26.1919H127.378V0.143215H116.472V63.2368H127.378V37.1882H158.835V63.2368H169.741V0.143215Z" fill="#3B82F6"/>
<path d="M229.065 0.143215H218.158V38.9007C218.158 46.7423 211.759 53.1418 203.917 53.1418C196.076 53.1418 189.676 46.7423 189.676 38.9007V0.143215H178.77V38.9007C178.77 52.6912 190.037 64.048 203.917 64.048C217.798 64.048 229.065 52.6912 229.065 38.9007V0.143215Z" fill="#3B82F6"/>
<path d="M286.97 11.0494V0.143215H233.43V11.0494H254.702V63.2368H265.608V11.0494H286.97Z" fill="#3B82F6"/>
</svg>
